<svg width="40" height="40" xmlns="http://www.w3.org/2000/svg"><path d="M20 5C11.729 5 5 11.729 5 20s6.729 15 15 15 15-6.729 15-15S28.271 5 20 5zm11.896 13.5H27.75c-.174-3.248-1.095-6.45-2.688-9.364 3.657 1.711 6.311 5.206 6.834 9.364zM20.795 8.04c1.552 2.046 3.64 5.67 3.94 10.46h-9.19c.209-3.894 1.491-7.542 3.676-10.461C19.48 8.024 19.738 8 20 8c.268 0 .531.024.795.04zm-5.763 1.05c-1.476 2.837-2.328 6.053-2.487 9.41H8.104c.528-4.194 3.222-7.714 6.928-9.41zM8.104 21.5h4.46c.204 3.569.998 6.717 2.335 9.345-3.638-1.719-6.275-5.202-6.795-9.345zm11.071 10.46c-2.102-2.547-3.342-6.116-3.614-10.46h9.17c-.312 4.16-1.676 7.794-3.905 10.458-.273.018-.546.042-.826.042-.279 0-.55-.024-.825-.04zm6.017-1.159c1.432-2.69 2.306-5.851 2.536-9.301h4.167c-.514 4.108-3.114 7.57-6.703 9.302z"/></svg>