<svg width="40" height="40" xmlns="http://www.w3.org/2000/svg"><path d="M16.1 17.571h-5.653c0-.006 0-.011.002-.017a9.478 9.478 0 01.567-1.807 9.719 9.719 0 012.089-3.067 9.833 9.833 0 013.1-2.065 9.629 9.629 0 011.83-.562c1.282-.26 2.645-.26 3.934 0a9.785 9.785 0 014.924 2.625l2.761-2.723a13.765 13.765 0 00-4.337-2.895 13.606 13.606 0 00-2.564-.787 13.953 13.953 0 00-5.497 0c-.875.178-1.739.442-2.566.79a13.696 13.696 0 00-4.343 2.891c-.62.61-1.18 1.284-1.663 1.995a13.41 13.41 0 00-1.26 2.295 13.156 13.156 0 00-.795 2.536c-.055.26-.084.527-.123.791H.5l7.8 7.715 7.8-7.715zm7.8 3.857h5.653c-.002.006 0 .012-.002.016a9.259 9.259 0 01-.57 1.809 9.557 9.557 0 01-2.09 3.066 9.824 9.824 0 01-3.096 2.066 9.718 9.718 0 01-1.83.561c-1.28.26-2.646.26-3.933 0a9.742 9.742 0 01-3.484-1.45c-.515-.343-1-.74-1.443-1.177l-2.758 2.727A13.683 13.683 0 0020 33c.926 0 1.85-.093 2.746-.274a13.516 13.516 0 002.568-.789c.809-.34 1.589-.758 2.316-1.244a13.595 13.595 0 004.944-5.936c.347-.81.614-1.664.795-2.538.053-.26.084-.526.123-.79H39.5l-7.8-7.715-7.8 7.714z"/></svg>